<svg width="64" height="64" viewBox="0 0 64 64" fill="none" xmlns="http://www.w3.org/2000/svg">
  <defs>
    <linearGradient id="bg" x1="0" y1="0" x2="1" y2="1">
      <stop offset="0%" stop-color="#0A0B0D"/>
      <stop offset="100%" stop-color="#1a1d2e"/>
    </linearGradient>
    <radialGradient id="eye" cx="0.5" cy="0.5" r="0.5">
      <stop offset="0%" stop-color="#32F08C"/>
      <stop offset="60%" stop-color="#5BC0EB"/>
      <stop offset="100%" stop-color="#5BC0EB" stop-opacity="0"/>
    </radialGradient>
    <filter id="glow">
      <feGaussianBlur stdDeviation="1.5" result="blur"/>
      <feMerge>
        <feMergeNode in="blur"/>
        <feMergeNode in="SourceGraphic"/>
      </feMerge>
    </filter>
  </defs>
  <rect width="64" height="64" rx="12" fill="url(#bg)"/>
  <g filter="url(#glow)" transform="translate(32 32)">
    <circle r="4" fill="url(#eye)"/>
    <path d="M 0 -4 Q 18 -10 22 -2 Q 24 6 14 8" stroke="#32F08C" stroke-width="2.5" fill="none" stroke-linecap="round" opacity="0.95"/>
    <path d="M 2 -6 Q 26 -14 30 -4 Q 32 8 18 12 Q 10 13 6 10" stroke="#5BC0EB" stroke-width="2" fill="none" stroke-linecap="round" opacity="0.7"/>
    <path d="M 4 -8 Q 34 -18 38 -6 Q 40 10 22 16" stroke="#5BC0EB" stroke-width="1.5" fill="none" stroke-linecap="round" opacity="0.4"/>
    <path d="M -2 4 Q -16 8 -20 0 Q -22 -8 -12 -10" stroke="#32F08C" stroke-width="2.5" fill="none" stroke-linecap="round" opacity="0.85"/>
    <path d="M -4 6 Q -24 12 -28 2 Q -30 -10 -16 -14" stroke="#5BC0EB" stroke-width="2" fill="none" stroke-linecap="round" opacity="0.6"/>
    <path d="M -6 8 Q -32 16 -36 4" stroke="#5BC0EB" stroke-width="1.5" fill="none" stroke-linecap="round" opacity="0.35"/>
  </g>
</svg>
